<?xml version="1.0" standalone="no"?>
<!DOCTYPE svg PUBLIC "-//W3C//DTD SVG 20010904//EN"
 "http://www.w3.org/TR/2001/REC-SVG-20010904/DTD/svg10.dtd">
<svg version="1.0" xmlns="http://www.w3.org/2000/svg"
 width="450.000000pt" height="450.000000pt" viewBox="0 0 450.000000 450.000000"
 preserveAspectRatio="xMidYMid meet">
<metadata>
Created by potrace 1.11, written by Peter Selinger 2001-2013
</metadata>
<g transform="translate(0.000000,450.000000) scale(0.100000,-0.100000)"
fill="#000000" stroke="none">
<path d="M2010 4339 c-458 -52 -872 -254 -1214 -595 -340 -338 -528 -715 -597
-1194 -18 -126 -15 -452 5 -585 85 -554 369 -1022 832 -1370 348 -262 763
-395 1231 -395 332 0 619 64 900 199 202 98 359 209 532 376 433 418 641 904
641 1500 0 596 -208 1082 -641 1500 -336 325 -735 513 -1194 565 -105 12 -387
11 -495 -1z m565 -154 c388 -59 730 -230 1029 -515 282 -269 484 -626 555
-982 55 -277 55 -549 0 -826 -108 -541 -513 -1061 -1028 -1321 -512 -259
-1180 -265 -1699 -16 -196 94 -346 200 -516 365 -296 287 -470 597 -553 989
-26 119 -27 140 -27 396 0 256 1 277 27 396 65 307 190 568 384 809 72 89 254
267 338 331 293 224 613 351 980 389 118 12 384 4 510 -15z"/>
<path d="M1980 3385 l0 -415 280 0 280 0 0 415 0 415 -280 0 -280 0 0 -415z"/>
<path d="M2143 2676 c-108 -35 -209 -123 -257 -226 -29 -60 -31 -73 -31 -175
0 -102 2 -115 31 -176 39 -82 116 -159 203 -202 62 -30 72 -32 171 -32 145 1
200 23 296 119 95 95 118 152 118 291 0 139 -23 196 -118 291 -90 90 -150 115
-281 120 -58 3 -105 -1 -132 -10z"/>
<path d="M1171 1970 c-190 -110 -349 -204 -354 -209 -11 -11 250 -480 266
-481 14 0 716 404 717 413 0 12 -271 477 -278 476 -4 0 -162 -90 -351 -199z"/>
<path d="M2986 2148 c-43 -70 -256 -447 -256 -455 1 -10 686 -405 707 -407 19
-1 290 461 277 474 -10 9 -703 410 -710 410 -2 0 -10 -10 -18 -22z"/>
</g>
</svg>
